<?xml version="1.0" encoding="utf-8"?>
<!-- Generator: Adobe Illustrator 26.0.1, SVG Export Plug-In . SVG Version: 6.00 Build 0)  -->
<svg version="1.2" baseProfile="tiny" id="Слой_1"
	 xmlns="http://www.w3.org/2000/svg" xmlns:xlink="http://www.w3.org/1999/xlink" x="0px" y="0px" viewBox="0 0 1000 1000"
	 overflow="visible" xml:space="preserve">
<path d="M553,439.9c1.7,2.6,2.8,4.3,3.8,5.8H589c3.5-6,6.9-12,10.6-18.4h-68.1c5.5,9.7,10.8,18.8,16,28c-3.6,6.2-7.1,12.2-10.9,18.7
	c-8-13.8-15.5-27-23.4-40.6h7.2c5.3,9.2,10.6,18.3,16.2,27.9c1.5-2.5,2.6-4.5,3.5-6.2c-5.6-9.7-11-18.9-16.2-27.9l-90,0
	c5.5,9.6,10.8,18.8,16,28c-3.6,6.1-7,12.1-10.9,18.7c-8-13.8-15.6-27-23.5-40.7h7.2c5.4,9.3,10.7,18.4,16.3,28
	c1.4-2.5,2.4-4.2,3.5-6.1c-5.4-9.3-10.8-18.7-16.1-27.8h-21.5c11.5,19.8,22.6,39.1,34.1,58.9c5.8-9.9,11-19,16.1-27.8h21.7
	c-7.9,13.7-15.5,26.8-23.5,40.5c-1.5-2.6-2.6-4.5-3.6-6.3c5.3-9.2,10.5-18.3,15.9-27.8h-7c-5.3,9.2-10.6,18.4-16,27.8
	c3.5,6,33.5,58.1,45,78c5.8-9.9,11-18.9,16.1-27.8h21.7c-7.9,13.8-15.5,26.8-23.3,40.3c-1.5-2.4-2.6-4.2-3.7-6.1
	c5.3-9.3,10.5-18.5,16-28h-7c-5.4,9.4-10.8,18.7-16.1,28c3.6,6.2,7,12.1,10.8,18.6c11.5-19.9,22.6-39.2,34.2-59.3h-32.5
	c-3.5-6.1-6.9-12-10.6-18.4H540c-1.2,2.1-2.2,4-3.4,6.1h-32c1.4,2.4,2.4,4.2,3.3,5.8h32.6c3.4-5.9,33.5-58,45-78h-32.6
	c-3.5-6.2-7-12.1-10.5-18.4h46.7c-1.4,2.4-2.5,4.2-3.8,6.4H553z M574.5,458.6c-7.9,13.6-15.4,26.6-23.3,40.3
	c-1.5-2.6-2.5-4.4-3.6-6.3c5.3-9.2,10.5-18.2,15.9-27.7h-7.1c-5.3,9.3-10.6,18.4-16,27.7c2.4,4,4.7,8.1,7.2,12.4l-3.8,6.5h-14.2
	c-5.3-9.2-10.4-18-15.4-26.7c1.2-2,2.2-3.8,3.6-6.2c5,8.6,9.8,16.8,14.4,24.6h7c-7.3-12.5-14.2-24.5-21.4-37.1
	c-3.9,6.8-7.3,12.8-10.7,18.7c5.1,8.8,9.9,17.3,15.3,26.7h-39.6c5.7,9.9,10.9,18.9,16.1,28c-3.6,6.1-7.1,12-10.9,18.6
	c-8-13.8-15.5-26.9-23.3-40.4h7.3c5.3,9.1,10.5,18.1,16.2,27.8c1.5-2.7,2.4-4.5,3.4-6.3c-5.5-9.5-10.8-18.7-15.9-27.6h-14.4
	l-3.9-6.7c2.5-4.2,4.8-8.2,7.2-12.1h32.9c1,1.9,2,3.7,3.3,6.1h-32.4c-1.1,1.9-2,3.6-3.2,5.7h46.2c-3.6-6.3-7-12.1-10.7-18.5h-32.2
	c6.7-11.7,13-22.6,19.6-34.1h-32.3c-3.6-6.2-7-12.2-10.7-18.6h46.6c-1.5,2.4-2.5,4.2-3.8,6.4h-31.9c1.5,2.4,2.6,4.2,3.5,5.6h32.5
	c2.3-4.1,4.6-8,6.9-12.1l7.6-0.1c2.4,4.2,4.7,8.3,7.1,12.4c-5.4,9.4-10.8,18.8-16.1,27.8h-7.2c5.5-9.6,10.8-18.8,16-27.9
	c-1.2-2-2.3-3.8-3.6-6c-7.8,13.5-15.3,26.5-23.1,40.1h21.5c5.3-9.2,10.6-18.2,16.1-27.8c6.8,11.7,13.2,22.7,19.9,34.1
	c5.7-9.8,11-18.9,16-27.6H574.5z"/>
</svg>
