0
SECTION
2
HEADER
9
$INSUNITS
70
4
9
$ACADVER
1
AC1014
9
$HANDSEED
5
FFFF
0
ENDSEC
0
SECTION
2
TABLES
0
TABLE
2
VPORT
5
8
100
AcDbSymbolTable
0
ENDTAB
0
TABLE
2
LTYPE
5
5
100
AcDbSymbolTable
0
LTYPE
5
14
100
AcDbSymbolTableRecord
100
AcDbLinetypeTableRecord
2
BYBLOCK
70
0
0
LTYPE
5
15
100
AcDbSymbolTableRecord
100
AcDbLinetypeTableRecord
2
BYLAYER
70
0
0
ENDTAB
0
TABLE
2
LAYER
5
2
100
AcDbSymbolTable
70
2
0
LAYER
5
50
100
AcDbSymbolTableRecord
100
AcDbLayerTableRecord
2
0
70
0
6
CONTINUOUS
0
ENDTAB
0
TABLE
2
STYLE
5
3
100
AcDbSymbolTable
70
1
0
STYLE
5
11
100
AcDbSymbolTableRecord
100
AcDbTextStyleTableRecord
2
STANDARD
70
0
0
ENDTAB
0
TABLE
2
VIEW
5
6
100
AcDbSymbolTable
70
0
0
ENDTAB
0
TABLE
2
UCS
5
7
100
AcDbSymbolTable
70
0
0
ENDTAB
0
TABLE
2
APPID
5
9
100
AcDbSymbolTable
70
2
0
APPID
5
12
100
AcDbSymbolTableRecord
100
AcDbRegAppTableRecord
2
ACAD
70
0
0
ENDTAB
0
TABLE
2
DIMSTYLE
5
A
100
AcDbSymbolTable
70
1
0
ENDTAB
0
TABLE
2
BLOCK_RECORD
5
1
100
AcDbSymbolTable
70
1
0
BLOCK_RECORD
5
1F
100
AcDbSymbolTableRecord
100
AcDbBlockTableRecord
2
*MODEL_SPACE
0
BLOCK_RECORD
5
1B
100
AcDbSymbolTableRecord
100
AcDbBlockTableRecord
2
*PAPER_SPACE
0
ENDTAB
0
ENDSEC
0
SECTION
2
BLOCKS
0
BLOCK
5
20
100
AcDbEntity
100
AcDbBlockBegin
2
*MODEL_SPACE
0
ENDBLK
5
21
100
AcDbEntity
100
AcDbBlockEnd
0
BLOCK
5
1C
100
AcDbEntity
100
AcDbBlockBegin
2
*PAPER_SPACE
0
ENDBLK
5
1D
100
AcDbEntity
100
AcDbBlockEnd
0
ENDSEC
0
SECTION
2
ENTITIES
0
LWPOLYLINE
5
100
100
AcDbEntity
8
0
100
AcDbPolyline
90
4
70
1
43
0.0
10
210
20
0
10
0
20
0
10
0
20
-210
10
210
20
-210
0
SPLINE
5
101
100
AcDbEntity
8
0
100
AcDbSpline
70
4
71
3
72
8
73
4
74
0
42
0.000000001
43
0.0000000001
44
0.0000000001
40
0
40
0
40
0
40
0
40
1
40
1
40
1
40
1
41
1
41
1
41
1
41
1
10
157.61520513749943
20
-175.0410809304372
30
0
10
159.44818071116595
20
-172.23772007254638
30
0
10
160.63418888940944
20
-170.404777403335
30
0
10
161.71240207287093
20
-168.78745762814276
30
0
0
LINE
5
102
100
AcDbEntity
8
0
100
AcDbLine
10
161.71240207287093
20
-168.78745762814276
30
0
11
196.43087974211167
21
-168.78745762814276
31
0
0
SPLINE
5
103
100
AcDbEntity
8
0
100
AcDbSpline
70
4
71
3
72
8
73
4
74
0
42
0.000000001
43
0.0000000001
44
0.0000000001
40
0
40
0
40
0
40
0
40
1
40
1
40
1
40
1
41
1
41
1
41
1
41
1
10
196.4308797421117
20
-168.78745762814276
30
0
10
200.20462588422674
20
-175.25673672891151
30
0
10
203.87057703155975
20
-181.72601582968019
30
0
10
207.85991316323901
20
-188.62657362294249
30
0
0
LINE
5
104
100
AcDbEntity
8
0
100
AcDbLine
10
207.85991316323901
20
-188.62657362294249
30
0
11
134.43362169307824
21
-188.62657362294249
31
0
0
SPLINE
5
105
100
AcDbEntity
8
0
100
AcDbSpline
70
4
71
3
72
8
73
4
74
0
42
0.000000001
43
0.0000000001
44
0.0000000001
40
0
40
0
40
0
40
0
40
1
40
1
40
1
40
1
41
1
41
1
41
1
41
1
10
134.43362169307824
20
-188.62657362294249
30
0
10
140.36379420211625
20
-178.16789258158437
30
0
10
146.07831091267991
20
-168.35617893564921
30
0
10
151.68503262846144
20
-158.43660448602185
30
0
0
SPLINE
5
106
100
AcDbEntity
8
0
100
AcDbSpline
70
4
71
3
72
8
73
4
74
0
42
0.000000001
43
0.0000000001
44
0.0000000001
40
0
40
0
40
0
40
0
40
1
40
1
40
1
40
1
41
1
41
1
41
1
41
1
10
151.68503262846144
20
-158.43660448602185
30
0
10
147.80349149156427
20
-151.75166958677886
30
0
10
144.02974534944917
20
-145.28239048601017
30
0
10
139.93248260516759
20
-138.2740047935107
30
0
0
SPLINE
5
107
100
AcDbEntity
8
0
100
AcDbSpline
70
4
71
3
72
8
73
4
74
0
42
0.000000001
43
0.0000000001
44
0.0000000001
40
0
40
0
40
0
40
0
40
1
40
1
40
1
40
1
41
1
41
1
41
1
41
1
10
139.93248260516759
20
-138.2740047935107
30
0
10
131.30677713747593
20
-153.15333356349669
30
0
10
123.22017826151509
20
-167.38576074696988
30
0
10
114.70226778860557
20
-182.04946662293665
30
0
0
LINE
5
108
100
AcDbEntity
8
0
100
AcDbLine
10
114.70226778860555
20
-182.04946662293665
30
0
11
122.46541587131004
21
-182.04946662293665
31
0
0
SPLINE
5
109
100
AcDbEntity
8
0
100
AcDbSpline
70
4
71
3
72
8
73
4
74
0
42
0.000000001
43
0.0000000001
44
0.0000000001
40
0
40
0
40
0
40
0
40
1
40
1
40
1
40
1
41
1
41
1
41
1
41
1
10
122.46541587131006
20
-182.04946662293665
30
0
10
128.17993258187371
20
-172.1298921733092
30
0
10
133.89444929243737
20
-162.31817852737407
30
0
10
139.93248260516759
20
-151.96732538525316
30
0
0
SPLINE
5
110
100
AcDbEntity
8
0
100
AcDbSpline
70
4
71
3
72
8
73
4
74
0
42
0.000000001
43
0.0000000001
44
0.0000000001
40
0
40
0
40
0
40
0
40
1
40
1
40
1
40
1
41
1
41
1
41
1
41
1
10
139.93248260516759
20
-151.96732538525316
30
0
10
141.54980238035975
20
-154.66285834390675
30
0
10
142.73581055860333
20
-156.81928471082969
30
0
10
143.70622874728269
20
-158.65226028449621
30
0
0
SPLINE
5
111
100
AcDbEntity
8
0
100
AcDbSpline
70
4
71
3
72
8
73
4
74
0
42
0.000000001
43
0.0000000001
44
0.0000000001
40
0
40
0
40
0
40
0
40
1
40
1
40
1
40
1
41
1
41
1
41
1
41
1
10
143.70622874728269
20
-158.65226028449621
30
0
10
137.66826124346261
20
-169.11094132585424
30
0
10
131.84588372920672
20
-179.03048287102655
30
0
10
126.23916201342517
20
-188.73440152217967
30
0
0
LINE
5
112
100
AcDbEntity
8
0
100
AcDbLine
10
126.23916201342519
20
-188.7344015221797
30
0
11
29.199975501894588
21
-188.73440152217967
31
0
0
SPLINE
5
113
100
AcDbEntity
8
0
100
AcDbSpline
70
4
71
3
72
8
73
4
74
0
42
0.000000001
43
0.0000000001
44
0.0000000001
40
0
40
0
40
0
40
0
40
1
40
1
40
1
40
1
41
1
41
1
41
1
41
1
10
29.199975501894571
20
-188.73440152217967
30
0
10
35.130148010932558
20
-178.3835483800587
30
0
10
40.844664721496216
20
-168.46400683488639
30
0
10
46.451386437277762
20
-158.54443238525903
30
0
0
SPLINE
5
114
100
AcDbEntity
8
0
100
AcDbSpline
70
4
71
3
72
8
73
4
74
0
42
0.000000001
43
0.0000000001
44
0.0000000001
40
0
40
0
40
0
40
0
40
1
40
1
40
1
40
1
41
1
41
1
41
1
41
1
10
46.451386437277762
20
-158.54443238525903
30
0
10
42.569812395925553
20
-151.96732538525316
30
0
10
38.903894153047602
20
-145.49804628448442
30
0
10
34.698869318438952
20
-138.38183269274788
30
0
0
SPLINE
5
115
100
AcDbEntity
8
0
100
AcDbSpline
70
4
71
3
72
8
73
4
74
0
42
0.000000001
43
0.0000000001
44
0.0000000001
40
0
40
0
40
0
40
0
40
1
40
1
40
1
40
1
41
1
41
1
41
1
41
1
10
34.698869318438952
20
-138.38183269274788
30
0
10
26.073163850747321
20
-153.26116146273387
30
0
10
17.878737075549296
20
-167.49358864620703
30
0
10
9.3608595070948297
20
-182.26512242141092
30
0
0
LINE
5
116
100
AcDbEntity
8
0
100
AcDbLine
10
9.3608595070948297
20
-182.26512242141092
30
0
11
17.124007589799302
21
-182.26512242141092
31
0
0
SPLINE
5
117
100
AcDbEntity
8
0
100
AcDbSpline
70
4
71
3
72
8
73
4
74
0
42
0.000000001
43
0.0000000001
44
0.0000000001
40
0
40
0
40
0
40
0
40
1
40
1
40
1
40
1
41
1
41
1
41
1
41
1
10
17.124007589799319
20
-182.26512242141092
30
0
10
22.946352199600142
20
-172.23775297700143
30
0
10
28.660901814618853
20
-162.42600642661125
30
0
10
34.698869318438952
20
-152.07515328449028
30
0
0
SPLINE
5
118
100
AcDbEntity
8
0
100
AcDbSpline
70
4
71
3
72
8
73
4
74
0
42
0.000000001
43
0.0000000001
44
0.0000000001
40
0
40
0
40
0
40
0
40
1
40
1
40
1
40
1
41
1
41
1
41
1
41
1
10
34.698869318438952
20
-152.07515328449028
30
0
10
36.208361194393959
20
-154.77068624314393
30
0
10
37.28657437785543
20
-156.60366181681042
30
0
10
38.472615460554067
20
-158.65226028449621
30
0
0
SPLINE
5
119
100
AcDbEntity
8
0
100
AcDbSpline
70
4
71
3
72
8
73
4
74
0
42
0.000000001
43
0.0000000001
44
0.0000000001
40
0
40
0
40
0
40
0
40
1
40
1
40
1
40
1
41
1
41
1
41
1
41
1
10
38.472615460554067
20
-158.65226028449621
30
0
10
32.650270850753245
20
-168.67962972890567
30
0
10
26.827926240952422
20
-178.81485997700736
30
0
10
21.11337662593364
20
-188.62657362294249
30
0
0
LINE
5
120
100
AcDbEntity
8
0
100
AcDbLine
10
21.113376625933636
20
-188.62657362294249
30
0
11
-2.0682068184875568
21
-188.62657362294249
31
0
0
SPLINE
5
121
100
AcDbEntity
8
0
100
AcDbSpline
70
4
71
3
72
8
73
4
74
0
42
0.000000001
43
0.0000000001
44
0.0000000001
40
0
40
0
40
0
40
0
40
1
40
1
40
1
40
1
41
1
41
1
41
1
41
1
10
-2.0682068184875391
20
-188.62657362294249
30
0
10
10.331244791319136
20
-167.27796575218775
30
0
10
22.299417708632276
20
-146.46843156870872
30
0
10
34.698869318438952
20
-125.11982369795405
30
0
0
SPLINE
5
122
100
AcDbEntity
8
0
100
AcDbSpline
70
4
71
3
72
8
73
4
74
0
42
0.000000001
43
0.0000000001
44
0.0000000001
40
0
40
0
40
0
40
0
40
1
40
1
40
1
40
1
41
1
41
1
41
1
41
1
10
34.698869318438952
20
-125.11982369795405
30
0
10
40.952492620733381
20
-135.79412763333139
30
0
10
46.559214336514927
20
-145.6058741837216
30
0
10
52.058108153059308
20
-155.09413703640035
30
0
0
LINE
5
123
100
AcDbEntity
8
0
100
AcDbLine
10
52.058108153059308
20
-155.09413703640033
30
0
11
75.455347395954817
21
-155.09413703640035
31
0
0
SPLINE
5
124
100
AcDbEntity
8
0
100
AcDbSpline
70
4
71
3
72
8
73
4
74
0
42
0.000000001
43
0.0000000001
44
0.0000000001
40
0
40
0
40
0
40
0
40
1
40
1
40
1
40
1
41
1
41
1
41
1
41
1
10
75.455347395954817
20
-155.09413703640035
30
0
10
66.937469827500422
20
-140.32260326119641
30
0
10
58.743043052302326
20
-126.19803688141545
30
0
10
50.117337584610766
20
-111.42650310621157
30
0
0
SPLINE
5
125
100
AcDbEntity
8
0
100
AcDbSpline
70
4
71
3
72
8
73
4
74
0
42
0.000000001
43
0.0000000001
44
0.0000000001
40
0
40
0
40
0
40
0
40
1
40
1
40
1
40
1
41
1
41
1
41
1
41
1
10
50.117337584610766
20
-111.42650310621157
30
0
10
48.500017809418594
20
-114.22986396410238
30
0
10
47.313976726719957
20
-116.27846243178809
30
0
10
46.235763543258486
20
-118.2192330002367
30
0
0
SPLINE
5
126
100
AcDbEntity
8
0
100
AcDbSpline
70
4
71
3
72
8
73
4
74
0
42
0.000000001
43
0.0000000001
44
0.0000000001
40
0
40
0
40
0
40
0
40
1
40
1
40
1
40
1
41
1
41
1
41
1
41
1
10
46.235763543258486
20
-118.2192330002367
30
0
10
51.950280253822143
20
-128.13880744986406
30
0
10
57.55700196960376
20
-137.95052109579922
30
0
10
63.379346579404583
20
-148.19354633868301
30
0
0
LINE
5
127
100
AcDbEntity
8
0
100
AcDbLine
10
63.379346579404583
20
-148.19354633868301
30
0
11
55.831854295174423
21
-148.19354633868301
31
0
0
SPLINE
5
128
100
AcDbEntity
8
0
100
AcDbSpline
70
4
71
3
72
8
73
4
74
0
42
0.000000001
43
0.0000000001
44
0.0000000001
40
0
40
0
40
0
40
0
40
1
40
1
40
1
40
1
41
1
41
1
41
1
41
1
10
55.831854295174423
20
-148.19354633868301
30
0
10
50.117337584610766
20
-138.27397188905564
30
0
10
44.402787969592055
20
-128.35443034388334
30
0
10
38.580443359791232
20
-118.2192330002367
30
0
0
SPLINE
5
129
100
AcDbEntity
8
0
100
AcDbSpline
70
4
71
3
72
8
73
4
74
0
42
0.000000001
43
0.0000000001
44
0.0000000001
40
0
40
0
40
0
40
0
40
1
40
1
40
1
40
1
41
1
41
1
41
1
41
1
10
38.580443359791232
20
-118.2192330002367
30
0
10
42.354189501906276
20
-111.74995389946801
30
0
10
74.700585005749787
20
-55.575040460235385
30
0
10
87.100036615556462
20
-34.118637594698598
30
0
0
SPLINE
5
130
100
AcDbEntity
8
0
100
AcDbSpline
70
4
71
3
72
8
73
4
74
0
42
0.000000001
43
0.0000000001
44
0.0000000001
40
0
40
0
40
0
40
0
40
1
40
1
40
1
40
1
41
1
41
1
41
1
41
1
10
87.100036615556462
20
-34.118637594698598
30
0
10
93.353659917850891
20
-44.79297443453099
30
0
10
98.960381633632437
20
-54.496893085684022
30
0
10
104.45927545017689
20
-64.092950933144905
30
0
0
LINE
5
131
100
AcDbEntity
8
0
100
AcDbLine
10
104.45927545017688
20
-64.092950933144905
30
0
11
127.85648178861734
21
-64.092950933144905
31
0
0
SPLINE
5
132
100
AcDbEntity
8
0
100
AcDbSpline
70
4
71
3
72
8
73
4
74
0
42
0.000000001
43
0.0000000001
44
0.0000000001
40
0
40
0
40
0
40
0
40
1
40
1
40
1
40
1
41
1
41
1
41
1
41
1
10
127.85648178861734
20
-64.092950933144905
30
0
10
119.33857131570782
20
-49.213622163158917
30
0
10
111.14417744496485
20
-35.196850778159998
30
0
10
102.73412777574755
20
-20.640972801430451
30
0
0
SPLINE
5
133
100
AcDbEntity
8
0
100
AcDbSpline
70
4
71
3
72
8
73
4
74
0
42
0.000000001
43
0.0000000001
44
0.0000000001
40
0
40
0
40
0
40
0
40
1
40
1
40
1
40
1
41
1
41
1
41
1
41
1
10
102.73412777574755
20
-20.640972801430451
30
0
10
101.11680800055538
20
-23.228710765301983
30
0
10
99.930766917856744
20
-25.169481333750525
30
0
10
98.744725835158107
20
-27.218046896981249
30
0
0
SPLINE
5
134
100
AcDbEntity
8
0
100
AcDbSpline
70
4
71
3
72
8
73
4
74
0
42
0.000000001
43
0.0000000001
44
0.0000000001
40
0
40
0
40
0
40
0
40
1
40
1
40
1
40
1
41
1
41
1
41
1
41
1
10
98.744725835158107
20
-27.218046896981249
30
0
10
104.45924254572184
20
-37.245416341390722
30
0
10
110.06596426150338
20
-47.164990791018084
30
0
10
115.99613677054137
20
-57.408016033901887
30
0
0
LINE
5
135
100
AcDbEntity
8
0
100
AcDbLine
10
115.99613677054136
20
-57.408016033901887
30
0
11
108.44864448631121
21
-57.408016033901887
31
0
0
SPLINE
5
136
100
AcDbEntity
8
0
100
AcDbSpline
70
4
71
3
72
8
73
4
74
0
42
0.000000001
43
0.0000000001
44
0.0000000001
40
0
40
0
40
0
40
0
40
1
40
1
40
1
40
1
41
1
41
1
41
1
41
1
10
108.44864448631121
20
-57.408016033901887
30
0
10
102.62629987651039
20
-47.272785785800195
30
0
10
96.803955266709565
20
-37.245416341390722
30
0
10
91.089405651690853
20
-27.218046896981249
30
0
0
SPLINE
5
137
100
AcDbEntity
8
0
100
AcDbSpline
70
4
71
3
72
8
73
4
74
0
42
0.000000001
43
0.0000000001
44
0.0000000001
40
0
40
0
40
0
40
0
40
1
40
1
40
1
40
1
41
1
41
1
41
1
41
1
10
91.089405651690853
20
-27.218046896981249
30
0
10
94.970979693043063
20
-20.533111997738231
30
0
10
98.636897935921013
20
-14.171693700661763
30
0
10
102.7340948712925
20
-7.1633080081623746
30
0
0
SPLINE
5
138
100
AcDbEntity
8
0
100
AcDbSpline
70
4
71
3
72
8
73
4
74
0
42
0.000000001
43
0.0000000001
44
0.0000000001
40
0
40
0
40
0
40
0
40
1
40
1
40
1
40
1
41
1
41
1
41
1
41
1
10
102.7340948712925
20
-7.1633080081623746
30
0
10
115.13357938555423
20
-28.619776682609199
30
0
10
127.10171939841224
20
-49.429277961633176
30
0
10
139.60896600300103
20
-71.101336625644294
30
0
0
LINE
5
139
100
AcDbEntity
8
0
100
AcDbLine
10
139.60896600300103
20
-71.101336625644308
30
0
11
104.56703754050388
21
-71.101336625644294
31
0
0
SPLINE
5
140
100
AcDbEntity
8
0
100
AcDbSpline
70
4
71
3
72
8
73
4
74
0
42
0.000000001
43
0.0000000001
44
0.0000000001
40
0
40
0
40
0
40
0
40
1
40
1
40
1
40
1
41
1
41
1
41
1
41
1
10
104.56703754050388
20
-71.101336625644294
30
0
10
100.79329139838883
20
-77.678410721195092
30
0
10
97.127373155510881
20
-84.03989482718174
30
0
10
93.137971214921507
20
-90.940485524899088
30
0
0
LINE
5
141
100
AcDbEntity
8
0
100
AcDbLine
10
93.137971214921507
20
-90.940485524899103
30
0
11
143.59843375250057
21
-90.940485524899088
31
0
0
SPLINE
5
142
100
AcDbEntity
8
0
100
AcDbSpline
70
4
71
3
72
8
73
4
74
0
42
0.000000001
43
0.0000000001
44
0.0000000001
40
0
40
0
40
0
40
0
40
1
40
1
40
1
40
1
41
1
41
1
41
1
41
1
10
143.59843375250057
20
-90.940485524899088
30
0
10
142.30456477056478
20
-88.676264163194105
30
0
10
141.22635158710338
20
-86.627632791053273
30
0
10
139.93248260516759
20
-84.36341142934829
30
0
0
LINE
5
143
100
AcDbEntity
8
0
100
AcDbLine
10
139.93248260516759
20
-84.36341142934829
30
0
11
105.42966073440114
21
-84.36341142934829
31
0
0
SPLINE
5
144
100
AcDbEntity
8
0
100
AcDbSpline
70
4
71
3
72
8
73
4
74
0
42
0.000000001
43
0.0000000001
44
0.0000000001
40
0
40
0
40
0
40
0
40
1
40
1
40
1
40
1
41
1
41
1
41
1
41
1
10
105.42966073440112
20
-84.36341142934829
30
0
10
106.9391526103562
20
-81.775673465476757
30
0
10
108.0173657938176
20
-79.834902897028144
30
0
10
108.98775107804191
20
-78.109788127053861
30
0
0
LINE
5
145
100
AcDbEntity
8
0
100
AcDbLine
10
108.98775107804191
20
-78.109788127053861
30
0
11
144.13747453532116
21
-78.109788127053861
31
0
0
SPLINE
5
146
100
AcDbEntity
8
0
100
AcDbSpline
70
4
71
3
72
8
73
4
74
0
42
0.000000001
43
0.0000000001
44
0.0000000001
40
0
40
0
40
0
40
0
40
1
40
1
40
1
40
1
41
1
41
1
41
1
41
1
10
144.13747453532119
20
-78.109788127053861
30
0
10
147.80342568265417
20
-84.471272233040509
30
0
10
180.25761618127979
20
-140.64615276781802
30
0
10
192.65706779108649
20
-162.21041643704709
30
0
0
LINE
5
147
100
AcDbEntity
8
0
100
AcDbLine
10
192.65706779108649
20
-162.21041643704709
30
0
11
157.50734433380723
21
-162.21041643704709
31
0
0
SPLINE
5
148
100
AcDbEntity
8
0
100
AcDbSpline
70
4
71
3
72
8
73
4
74
0
42
0.000000001
43
0.0000000001
44
0.0000000001
40
0
40
0
40
0
40
0
40
1
40
1
40
1
40
1
41
1
41
1
41
1
41
1
10
157.50734433380723
20
-162.21041643704709
30
0
10
153.73359819169218
20
-168.8953513362901
30
0
10
149.95985204957705
20
-175.25680253782161
30
0
10
146.18610590746201
20
-182.04953243184676
30
0
0
LINE
5
149
100
AcDbEntity
8
0
100
AcDbLine
10
146.18610590746198
20
-182.04953243184673
30
0
11
196.53867473689382
21
-182.04953243184676
31
0
0
SPLINE
5
150
100
AcDbEntity
8
0
100
AcDbSpline
70
4
71
3
72
8
73
4
74
0
42
0.000000001
43
0.0000000001
44
0.0000000001
40
0
40
0
40
0
40
0
40
1
40
1
40
1
40
1
41
1
41
1
41
1
41
1
10
196.53867473689374
20
-182.04953243184676
30
0
10
195.02914995648368
20
-179.46182737243026
30
0
10
193.84314177824018
20
-177.5210238995266
30
0
10
192.44147780152224
20
-175.14897463858446
30
0
0
LINE
5
151
100
AcDbEntity
8
0
100
AcDbLine
10
192.44147780152224
20
-175.14897463858443
30
0
11
157.6152051374994
21
-175.14897463858446
31
0
0
LINE
5
152
100
AcDbEntity
8
0
100
AcDbLine
10
157.6152051374994
20
-175.14897463858446
30
0
11
157.61520513749943
21
-175.0410809304372
31
0
0
SPLINE
5
153
100
AcDbEntity
8
0
100
AcDbSpline
70
4
71
3
72
8
73
4
74
0
42
0.000000001
43
0.0000000001
44
0.0000000001
40
0
40
0
40
0
40
0
40
1
40
1
40
1
40
1
41
1
41
1
41
1
41
1
10
180.79678858192062
20
-154.87848123792602
30
0
10
172.27887810901109
20
-140.21477536195931
30
0
10
164.19227923305021
20
-126.19800397696039
30
0
10
155.67443456905082
20
-111.42650310621157
30
0
0
SPLINE
5
154
100
AcDbEntity
8
0
100
AcDbSpline
70
4
71
3
72
8
73
4
74
0
42
0.000000001
43
0.0000000001
44
0.0000000001
40
0
40
0
40
0
40
0
40
1
40
1
40
1
40
1
41
1
41
1
41
1
41
1
10
155.67443456905082
20
-111.42650310621157
30
0
10
154.05711479385866
20
-114.22986396410238
30
0
10
152.97890161039726
20
-116.17063453255092
30
0
10
151.79289343215368
20
-118.2192330002367
30
0
0
SPLINE
5
155
100
AcDbEntity
8
0
100
AcDbSpline
70
4
71
3
72
8
73
4
74
0
42
0.000000001
43
0.0000000001
44
0.0000000001
40
0
40
0
40
0
40
0
40
1
40
1
40
1
40
1
41
1
41
1
41
1
41
1
10
151.79289343215368
20
-118.2192330002367
30
0
10
157.50741014271733
20
-128.13880744986406
30
0
10
163.11413185849892
20
-137.84272610101709
30
0
10
168.93650937275481
20
-148.08575134390088
30
0
0
LINE
5
156
100
AcDbEntity
8
0
100
AcDbLine
10
168.93650937275481
20
-148.08575134390088
30
0
11
161.28122209374254
21
-148.08575134390088
31
0
0
SPLINE
5
157
100
AcDbEntity
8
0
100
AcDbSpline
70
4
71
3
72
8
73
4
74
0
42
0.000000001
43
0.0000000001
44
0.0000000001
40
0
40
0
40
0
40
0
40
1
40
1
40
1
40
1
41
1
41
1
41
1
41
1
10
161.28122209374254
20
-148.08575134390088
30
0
10
155.56670538317888
20
-138.05838189949142
30
0
10
149.85218867261523
20
-128.24663534910121
30
0
10
144.02981115835934
20
-118.2192330002367
30
0
0
SPLINE
5
158
100
AcDbEntity
8
0
100
AcDbSpline
70
4
71
3
72
8
73
4
74
0
42
0.000000001
43
0.0000000001
44
0.0000000001
40
0
40
0
40
0
40
0
40
1
40
1
40
1
40
1
41
1
41
1
41
1
41
1
10
144.02981115835934
20
-118.2192330002367
30
0
10
146.61754912223088
20
-113.90638026639088
30
0
10
149.0974262824102
20
-109.4856996333079
30
0
10
151.79295924106378
20
-104.84939610620572
30
0
0
LINE
5
159
100
AcDbEntity
8
0
100
AcDbLine
10
151.79295924106376
20
-104.84939610620572
30
0
11
147.69576230569228
21
-97.8410104137063
31
0
0
LINE
5
160
100
AcDbEntity
8
0
100
AcDbLine
10
147.69576230569228
20
-97.8410104137063
30
0
11
132.38512193875766
21
-97.841010413706258
31
0
0
SPLINE
5
161
100
AcDbEntity
8
0
100
AcDbSpline
70
4
71
3
72
8
73
4
74
0
42
0.000000001
43
0.0000000001
44
0.0000000001
40
0
40
0
40
0
40
0
40
1
40
1
40
1
40
1
41
1
41
1
41
1
41
1
10
132.38512193875772
20
-97.841010413706258
30
0
10
126.67060522819405
20
-107.76058486333369
30
0
10
121.17167850719454
20
-117.24884771601239
30
0
10
115.78061258988726
20
-126.62931557390905
30
0
0
SPLINE
5
162
100
AcDbEntity
8
0
100
AcDbSpline
70
4
71
3
72
8
73
4
74
0
42
0.000000001
43
0.0000000001
44
0.0000000001
40
0
40
0
40
0
40
0
40
1
40
1
40
1
40
1
41
1
41
1
41
1
41
1
10
115.78061258988726
20
-126.62931557390905
30
0
10
117.07448157182306
20
-128.78574194083194
30
0
10
118.15269475528453
20
-130.72651250928055
30
0
10
119.66215372678448
20
-133.31425047315207
30
0
0
SPLINE
5
163
100
AcDbEntity
8
0
100
AcDbSpline
70
4
71
3
72
8
73
4
74
0
42
0.000000001
43
0.0000000001
44
0.0000000001
40
0
40
0
40
0
40
0
40
1
40
1
40
1
40
1
41
1
41
1
41
1
41
1
10
119.66215372678448
20
-133.31425047315207
30
0
10
125.0532196440917
20
-124.04161051449258
30
0
10
130.22862976292464
20
-115.20028215278174
30
0
10
135.18844989219338
20
-106.79019957910938
30
0
0
LINE
5
164
100
AcDbEntity
8
0
100
AcDbLine
10
135.1884498921934
20
-106.79019957910938
30
0
11
142.73594217642355
21
-106.79019957910938
31
0
0
SPLINE
5
165
100
AcDbEntity
8
0
100
AcDbSpline
70
4
71
3
72
8
73
4
74
0
42
0.000000001
43
0.0000000001
44
0.0000000001
40
0
40
0
40
0
40
0
40
1
40
1
40
1
40
1
41
1
41
1
41
1
41
1
10
142.73594217642355
20
-106.79019957910938
30
0
10
134.86499909893701
20
-120.26786437237753
30
0
10
127.4253018094889
20
-133.20642257391489
30
0
10
119.66215372678448
20
-146.79191526642023
30
0
0
SPLINE
5
166
100
AcDbEntity
8
0
100
AcDbSpline
70
4
71
3
72
8
73
4
74
0
42
0.000000001
43
0.0000000001
44
0.0000000001
40
0
40
0
40
0
40
0
40
1
40
1
40
1
40
1
41
1
41
1
41
1
41
1
10
119.66215372678448
20
-146.79191526642023
30
0
10
115.45709598772078
20
-139.46007878066439
30
0
10
111.79121064929788
20
-132.99079967989564
30
0
10
108.12525950196488
20
-126.62931557390905
30
0
0
SPLINE
5
167
100
AcDbEntity
8
0
100
AcDbSpline
70
4
71
3
72
8
73
4
74
0
42
0.000000001
43
0.0000000001
44
0.0000000001
40
0
40
0
40
0
40
0
40
1
40
1
40
1
40
1
41
1
41
1
41
1
41
1
10
108.12525950196488
20
-126.62931557390905
30
0
10
113.62412041405427
20
-117.14105272123028
30
0
10
118.79959634179734
20
-107.97624066180795
30
0
10
124.62190804714311
20
-97.841010413706258
30
0
0
LINE
5
168
100
AcDbEntity
8
0
100
AcDbLine
10
124.62190804714311
20
-97.841010413706258
30
0
11
81.92465940117863
21
-97.841010413706258
31
0
0
SPLINE
5
169
100
AcDbEntity
8
0
100
AcDbSpline
70
4
71
3
72
8
73
4
74
0
42
0.000000001
43
0.0000000001
44
0.0000000001
40
0
40
0
40
0
40
0
40
1
40
1
40
1
40
1
41
1
41
1
41
1
41
1
10
81.92465940117863
20
-97.841010413706258
30
0
10
88.070487708690877
20
-87.166673573873865
30
0
10
93.67717652001744
20
-77.462754922720833
30
0
10
99.283898235798986
20
-67.651041276785691
30
0
0
SPLINE
5
170
100
AcDbEntity
8
0
100
AcDbSpline
70
4
71
3
72
8
73
4
74
0
42
0.000000001
43
0.0000000001
44
0.0000000001
40
0
40
0
40
0
40
0
40
1
40
1
40
1
40
1
41
1
41
1
41
1
41
1
10
99.283898235798986
20
-67.651041276785691
30
0
10
95.402324194446777
20
-61.073967181234821
30
0
10
91.628578052331662
20
-54.712483075248244
30
0
10
87.531381116960176
20
-47.596302387966745
30
0
0
SPLINE
5
171
100
AcDbEntity
8
0
100
AcDbSpline
70
4
71
3
72
8
73
4
74
0
42
0.000000001
43
0.0000000001
44
0.0000000001
40
0
40
0
40
0
40
0
40
1
40
1
40
1
40
1
41
1
41
1
41
1
41
1
10
87.531381116960176
20
-47.596302387966745
30
0
10
78.905675649268545
20
-62.475631157952733
30
0
10
70.819076773307685
20
-76.6002633466438
30
0
10
62.409027104090384
20
-91.156141323373419
30
0
0
LINE
5
172
100
AcDbEntity
8
0
100
AcDbLine
10
62.409027104090384
20
-91.156141323373433
30
0
11
70.279970181576942
21
-91.156141323373419
31
0
0
SPLINE
5
173
100
AcDbEntity
8
0
100
AcDbSpline
70
4
71
3
72
8
73
4
74
0
42
0.000000001
43
0.0000000001
44
0.0000000001
40
0
40
0
40
0
40
0
40
1
40
1
40
1
40
1
41
1
41
1
41
1
41
1
10
70.279970181576985
20
-91.156141323373419
30
0
10
75.994486892140642
20
-81.344427677438205
30
0
10
81.601208607922189
20
-71.640509026285173
30
0
10
87.747036915434506
20
-61.18182798492704
30
0
0
SPLINE
5
174
100
AcDbEntity
8
0
100
AcDbSpline
70
4
71
3
72
8
73
4
74
0
42
0.000000001
43
0.0000000001
44
0.0000000001
40
0
40
0
40
0
40
0
40
1
40
1
40
1
40
1
41
1
41
1
41
1
41
1
10
87.747036915434506
20
-61.18182798492704
30
0
10
89.364356690626678
20
-64.093016742055013
30
0
10
90.334741974850985
20
-66.033787310503627
30
0
10
91.412955158312386
20
-67.974557878952169
30
0
0
SPLINE
5
175
100
AcDbEntity
8
0
100
AcDbSpline
70
4
71
3
72
8
73
4
74
0
42
0.000000001
43
0.0000000001
44
0.0000000001
40
0
40
0
40
0
40
0
40
1
40
1
40
1
40
1
41
1
41
1
41
1
41
1
10
91.412955158312386
20
-67.974557878952169
30
0
10
85.482782649274469
20
-78.217583121835972
30
0
10
79.768265938710741
20
-88.137157571463334
30
0
10
74.269372122166359
20
-97.733248323379271
30
0
0
LINE
5
176
100
AcDbEntity
8
0
100
AcDbLine
10
74.269372122166359
20
-97.733248323379271
30
0
11
58.743108861212477
21
-97.733248323379271
31
0
0
LINE
5
177
100
AcDbEntity
8
0
100
AcDbLine
10
58.743108861212477
20
-97.733248323379271
30
0
11
54.538084026603855
21
-104.95728981435303
31
0
0
SPLINE
5
178
100
AcDbEntity
8
0
100
AcDbSpline
70
4
71
3
72
8
73
4
74
0
42
0.000000001
43
0.0000000001
44
0.0000000001
40
0
40
0
40
0
40
0
40
1
40
1
40
1
40
1
41
1
41
1
41
1
41
1
10
54.538084026603855
20
-104.95728981435299
30
0
10
57.233616985257427
20
-109.48579834667314
30
0
10
59.713494145436741
20
-113.79865108051895
30
0
10
62.301232109308273
20
-118.00367591512753
30
0
0
LINE
5
179
100
AcDbEntity
8
0
100
AcDbLine
10
62.301232109308273
20
-118.00367591512753
30
0
11
97.774439264298991
21
-118.00367591512753
31
0
0
SPLINE
5
180
100
AcDbEntity
8
0
100
AcDbSpline
70
4
71
3
72
8
73
4
74
0
42
0.000000001
43
0.0000000001
44
0.0000000001
40
0
40
0
40
0
40
0
40
1
40
1
40
1
40
1
41
1
41
1
41
1
41
1
10
97.774439264299033
20
-118.00367591512753
30
0
10
98.852652447760505
20
-115.95507744744182
30
0
10
99.930865631221906
20
-114.01427397453816
30
0
10
101.33252960793982
20
-111.42656891512168
30
0
0
LINE
5
181
100
AcDbEntity
8
0
100
AcDbLine
10
101.33252960793982
20
-111.42656891512168
30
0
11
66.398429044679816
21
-111.42656891512168
31
0
0
SPLINE
5
182
100
AcDbEntity
8
0
100
AcDbSpline
70
4
71
3
72
8
73
4
74
0
42
0.000000001
43
0.0000000001
44
0.0000000001
40
0
40
0
40
0
40
0
40
1
40
1
40
1
40
1
41
1
41
1
41
1
41
1
10
66.398429044679759
20
-111.42656891512168
30
0
10
65.212387961981193
20
-109.37797044743597
30
0
10
64.242002677756886
20
-107.54499487376947
30
0
10
62.948133695821156
20
-105.28074060760943
30
0
0
LINE
5
183
100
AcDbEntity
8
0
100
AcDbLine
10
62.948133695821163
20
-105.28074060760942
30
0
11
112.76159593352222
21
-105.28074060760943
31
0
0
SPLINE
5
184
100
AcDbEntity
8
0
100
AcDbSpline
70
4
71
3
72
8
73
4
74
0
42
0.000000001
43
0.0000000001
44
0.0000000001
40
0
40
0
40
0
40
0
40
1
40
1
40
1
40
1
41
1
41
1
41
1
41
1
10
112.76159593352219
20
-105.28074060760943
30
0
10
108.88002189216998
20
-112.07347050163449
30
0
10
105.21410364929203
20
-118.32712670838397
30
0
10
101.22470170870265
20
-125.22768450164627
30
0
0
LINE
5
185
100
AcDbEntity
8
0
100
AcDbLine
10
101.22470170870265
20
-125.22768450164627
30
0
11
66.506224039461898
21
-125.22768450164627
31
0
0
SPLINE
5
186
100
AcDbEntity
8
0
100
AcDbSpline
70
4
71
3
72
8
73
4
74
0
42
0.000000001
43
0.0000000001
44
0.0000000001
40
0
40
0
40
0
40
0
40
1
40
1
40
1
40
1
41
1
41
1
41
1
41
1
10
66.50622403946187
20
-125.22768450164627
30
0
10
73.730265530435659
20
-137.84279190992726
30
0
10
80.522995424460717
20
-149.59530902876608
30
0
10
87.639209016197341
20
-161.99476063857276
30
0
0
LINE
5
187
100
AcDbEntity
8
0
100
AcDbLine
10
87.639209016197341
20
-161.99476063857276
30
0
11
52.812936352174503
21
-161.99476063857276
31
0
0
SPLINE
5
188
100
AcDbEntity
8
0
100
AcDbSpline
70
4
71
3
72
8
73
4
74
0
42
0.000000001
43
0.0000000001
44
0.0000000001
40
0
40
0
40
0
40
0
40
1
40
1
40
1
40
1
41
1
41
1
41
1
41
1
10
52.812936352174518
20
-161.99476063857276
30
0
10
48.931362310822237
20
-168.67969553781577
30
0
10
45.265444067944358
20
-175.14897463858446
30
0
10
41.276042127354913
20
-182.04953243184676
30
0
0
LINE
5
189
100
AcDbEntity
8
0
100
AcDbLine
10
41.276042127354913
20
-182.04953243184676
30
0
11
91.520783057549551
21
-182.04953243184676
31
0
0
SPLINE
5
190
100
AcDbEntity
8
0
100
AcDbSpline
70
4
71
3
72
8
73
4
74
0
42
0.000000001
43
0.0000000001
44
0.0000000001
40
0
40
0
40
0
40
0
40
1
40
1
40
1
40
1
41
1
41
1
41
1
41
1
10
91.520783057549551
20
-182.04953243184676
30
0
10
89.903463282357379
20
-179.46182737243026
30
0
10
88.825250098895978
20
-177.5210238995266
30
0
10
87.423586122178065
20
-175.14897463858446
30
0
0
LINE
5
191
100
AcDbEntity
8
0
100
AcDbLine
10
87.423586122178065
20
-175.14897463858443
30
0
11
53.028592150648791
21
-175.14897463858446
31
0
0
SPLINE
5
192
100
AcDbEntity
8
0
100
AcDbSpline
70
4
71
3
72
8
73
4
74
0
42
0.000000001
43
0.0000000001
44
0.0000000001
40
0
40
0
40
0
40
0
40
1
40
1
40
1
40
1
41
1
41
1
41
1
41
1
10
53.028592150648848
20
-175.14897463858446
30
0
10
54.64591192584102
20
-172.56126957916797
30
0
10
55.831953008539585
20
-170.6204661062643
30
0
10
56.802338292763892
20
-169.1109742303093
30
0
0
LINE
5
193
100
AcDbEntity
8
0
100
AcDbLine
10
56.802338292763892
20
-169.11097423030927
30
0
11
91.844266755261046
21
-169.1109742303093
31
0
0
SPLINE
5
194
100
AcDbEntity
8
0
100
AcDbSpline
70
4
71
3
72
8
73
4
74
0
42
0.000000001
43
0.0000000001
44
0.0000000001
40
0
40
0
40
0
40
0
40
1
40
1
40
1
40
1
41
1
41
1
41
1
41
1
10
91.844266755261046
20
-169.1109742303093
30
0
10
94.324143915440359
20
-173.5316548633923
30
0
10
96.804053980074727
20
-177.73667969800096
30
0
10
99.28393114025404
20
-182.15736033108391
30
0
0
LINE
5
195
100
AcDbEntity
8
0
100
AcDbLine
10
99.283931140254026
20
-182.15736033108391
30
0
11
107.47835791545208
21
-182.26518823032109
31
0
0
SPLINE
5
196
100
AcDbEntity
8
0
100
AcDbSpline
70
4
71
3
72
8
73
4
74
0
42
0.000000001
43
0.0000000001
44
0.0000000001
40
0
40
0
40
0
40
0
40
1
40
1
40
1
40
1
41
1
41
1
41
1
41
1
10
107.47835791545207
20
-182.26518823032109
30
0
10
110.06606297486854
20
-177.73667969800096
30
0
10
112.54597303950291
20
-173.316031969373
30
0
10
115.13364519446434
20
-168.8953513362901
30
0
0
SPLINE
5
197
100
AcDbEntity
8
0
100
AcDbSpline
70
4
71
3
72
8
73
4
74
0
42
0.000000001
43
0.0000000001
44
0.0000000001
40
0
40
0
40
0
40
0
40
1
40
1
40
1
40
1
41
1
41
1
41
1
41
1
10
115.13364519446434
20
-168.8953513362901
30
0
10
109.31130058466351
20
-158.76015399264347
30
0
10
103.48895597486269
20
-148.62495664899683
30
0
10
97.774406359843979
20
-138.9210379978438
30
0
0
LINE
5
198
100
AcDbEntity
8
0
100
AcDbLine
10
97.774406359843994
20
-138.9210379978438
30
0
11
90.011258277139504
21
-138.9210379978438
31
0
0
SPLINE
5
199
100
AcDbEntity
8
0
100
AcDbSpline
70
4
71
3
72
8
73
4
74
0
42
0.000000001
43
0.0000000001
44
0.0000000001
40
0
40
0
40
0
40
0
40
1
40
1
40
1
40
1
41
1
41
1
41
1
41
1
10
90.01125827713949
20
-138.9210379978438
30
0
10
95.941430786177477
20
-149.27189113996468
30
0
10
101.65594749674113
20
-159.19143268513699
30
0
10
107.26266921252268
20
-169.0031792355272
30
0
0
SPLINE
5
200
100
AcDbEntity
8
0
100
AcDbSpline
70
4
71
3
72
8
73
4
74
0
42
0.000000001
43
0.0000000001
44
0.0000000001
40
0
40
0
40
0
40
0
40
1
40
1
40
1
40
1
41
1
41
1
41
1
41
1
10
107.26266921252268
20
-169.0031792355272
30
0
10
105.96880023058695
20
-171.15960560245014
30
0
10
104.78279205234337
20
-173.10037617089876
30
0
10
103.38109517117047
20
-175.47245833629597
30
0
0
SPLINE
5
201
100
AcDbEntity
8
0
100
AcDbSpline
70
4
71
3
72
8
73
4
74
0
42
0.000000001
43
0.0000000001
44
0.0000000001
40
0
40
0
40
0
40
0
40
1
40
1
40
1
40
1
41
1
41
1
41
1
41
1
10
103.38109517117047
20
-175.47245833629597
30
0
10
94.971045501953171
20
-160.91658035956635
30
0
10
86.884446625992311
20
-146.89980897456749
30
0
10
78.474364052319956
20
-132.23610309860072
30
0
0
LINE
5
202
100
AcDbEntity
8
0
100
AcDbLine
10
78.474364052319956
20
-132.23610309860069
30
0
11
101.65594749674115
21
-132.23610309860072
31
0
0
SPLINE
5
203
100
AcDbEntity
8
0
100
AcDbSpline
70
4
71
3
72
8
73
4
74
0
42
0.000000001
43
0.0000000001
44
0.0000000001
40
0
40
0
40
0
40
0
40
1
40
1
40
1
40
1
41
1
41
1
41
1
41
1
10
101.65594749674113
20
-132.23610309860072
30
0
10
107.37046420730479
20
-142.15567754822814
30
0
10
113.0850138223235
20
-151.85959619938117
30
0
10
119.01518633136149
20
-162.21041643704709
30
0
0
SPLINE
5
204
100
AcDbEntity
8
0
100
AcDbSpline
70
4
71
3
72
8
73
4
74
0
42
0.000000001
43
0.0000000001
44
0.0000000001
40
0
40
0
40
0
40
0
40
1
40
1
40
1
40
1
41
1
41
1
41
1
41
1
10
119.01518633136149
20
-162.21041643704709
30
0
10
126.34702281711739
20
-149.59530902876608
30
0
10
133.24761351483465
20
-137.73496401069011
30
0
10
140.47165500580846
20
-125.4433403001206
30
0
0
SPLINE
5
205
100
AcDbEntity
8
0
100
AcDbSpline
70
4
71
3
72
8
73
4
74
0
42
0.000000001
43
0.0000000001
44
0.0000000001
40
0
40
0
40
0
40
0
40
1
40
1
40
1
40
1
41
1
41
1
41
1
41
1
10
140.47165500580846
20
-125.4433403001206
30
0
10
146.61748331332069
20
-136.00981633626077
30
0
10
152.33200002388443
20
-145.82156288665095
30
0
10
157.72306594119163
20
-155.20203074454764
30
0
0
LINE
5
206
100
AcDbEntity
8
0
100
AcDbLine
10
157.72306594119163
20
-155.20203074454764
30
0
11
180.79678858192062
21
-155.20203074454764
31
0
0
LINE
5
207
100
AcDbEntity
8
0
100
AcDbLine
10
180.79678858192062
20
-155.20203074454764
30
0
11
180.79678858192062
21
-154.87848123792602
31
0
0
ENDSEC
0
SECTION
2
OBJECTS
0
DICTIONARY
5
C
100
AcDbDictionary
3
ACAD_GROUP
350
D
3
ACAD_MLINESTYLE
350
17
0
DICTIONARY
5
D
100
AcDbDictionary
0
DICTIONARY
5
1A
330
C
100
AcDbDictionary
0
DICTIONARY
5
17
100
AcDbDictionary
0
ENDSEC
0
EOF
